#!OML:ASF I:\Actors\actors\Patient Classification 1\Patient 1\Session 1\Subject1.ASF
:FULLY-SPECIFIED
:DEGREES
442
root -0.523373 17.6948 7.5452 10.8234 -10.414 -9.35851
lowerback 4.72611 1.86843 1.43597
upperback -3.38635 2.57105 -0.656699
thorax -6.0783 1.19411 -1.74143
lowerneck -12.6681 -3.04434 -0.0650121
upperneck 13.3642 -5.61688 9.22117
head 6.44044 -1.98611 2.43221
rclavicle 2.75317e-014 -2.22639e-014
rhumerus 46.6417 53.9402 -12.3091
rradius 107.405
rwrist 7.35844
rhand -3.16241 -41.1135
rfingers 7.12502
rthumb 22.5581 -69.8157
lclavicle 2.75317e-014 -2.22639e-014
lhumerus 60.6897 -41.4864 3.97075
lradius 122.492
lwrist 5.04585
lhand -25.0803 -10.7208
lfingers 7.12502
lthumb 1.43404 19.2541
rfemur -8.10855 20.8206 25.5395
rtibia 4.0939
rfoot -10.1686 -12.5378
rtoes 1.82555
lfemur 184.485 221.173 167.204
ltibia -2.92193
lfoot 336.879 -305.439
ltoes 13.8678
443
root -0.52457 17.7059 7.49639 10.789 -9.4267 -9.47621
lowerback 4.71564 2.06576 1.7809
upperback -2.93586 2.86043 -0.596225
thorax -5.57369 1.33535 -1.88533
lowerneck -12.5994 -3.48365 -0.243508
upperneck 12.5006 -6.10009 9.24514
head 6.18398 -2.26009 2.42115
rclavicle -1.17283e-014 -2.38542e-014
rhumerus 50.0061 52.0733 -12.8776
rradius 102.631
rwrist 7.52052
rhand -3.51759 -41.857
rfingers 7.12502
rthumb 22.2171 -70.6002
lclavicle -1.17283e-014 -2.38542e-014
lhumerus 65.3909 -39.2643 4.55163
lradius 119.071
lwrist 5.0818
lhand -24.2429 -9.9747
lfingers 7.12502
lthumb 2.24275 19.9933
rfemur -8.18882 20.75 25.7485
rtibia 4.1139
rfoot -10.2415 -13.4
rtoes 2.21694
lfemur 183.531 220.61 168.184
ltibia -2.74971
lfoot 339.003 -306.559
ltoes 12.1723
444
root -0.52541 17.7181 7.44633 10.836 -8.47606 -9.59453
lowerback 4.72105 2.25224 2.12344
upperback -2.52585 3.13355 -0.524122
thorax -5.12143 1.47023 -2.01389
lowerneck -12.4937 -3.88063 -0.263989
upperneck 11.6087 -6.53192 9.14316
head 5.9026 -2.51396 2.35266
rclavicle -7.7526e-015 9.54166e-015
rhumerus 53.1284 50.1311 -13.6907
rradius 97.5308
rwrist 7.74089
rhand -3.92024 -42.4917
rfingers 7.12502
rthumb 21.8306 -71.2803
lclavicle -7.7526e-015 9.54166e-015
lhumerus 69.9792 -37.1642 5.29186
lradius 115.228
lwrist 5.24209
lhand -23.1247 -9.44384
lfingers 7.12502
lthumb 3.32269 20.51
rfemur -8.36515 20.6992 25.9078
rtibia 4.10437
rfoot -10.2813 -14.2288
rtoes 2.55781
lfemur 182.504 220.142 169.177
ltibia -2.57674
lfoot 340.838 -307.604
ltoes 10.6052
445
root -0.525902 17.7312 7.39562 10.9543 -7.55802 -9.69146
lowerback 4.76794 2.54486 2.52433
upperback -2.1902 3.54633 -0.578181
thorax -4.75076 1.67065 -2.31917
lowerneck -12.3243 -4.35197 0.0840762
upperneck 10.6778 -7.11265 8.94745
head 5.59104 -2.83547 2.18677
rclavicle 1.59028e-014 1.11319e-014
rhumerus 55.3335 48.0941 -15.2729
rradius 92.1303
rwrist 8.09487
rhand -4.29303 -43.0206
rfingers 7.12502
rthumb 21.4725 -71.8506
lclavicle 1.59028e-014 1.11319e-014
lhumerus 74.9233 -35.3104 5.91539
lradius 110.936
lwrist 5.65444
lhand -21.8598 -9.28994
lfingers 7.12502
lthumb 4.54419 20.6413
rfemur -8.62919 20.6745 25.9925
rtibia 4.06716
rfoot -10.2979 -15.0347
rtoes 2.87647
lfemur 181.42 219.789 170.154
ltibia -2.41016
lfoot 342.419 -308.547
ltoes 9.18884
446
root -0.526042 17.7453 7.34527 11.1429 -6.66901 -9.74836
lowerback 4.79705 2.5752 2.69379
upperback -1.85758 3.60399 -0.345542
thorax -4.42198 1.70732 -2.16802
lowerneck -12.2848 -4.58401 -0.0514495
upperneck 9.9239 -7.30399 8.75468
head 5.35336 -2.97736 2.13584
rclavicle 1.13307e-014 2.8625e-014
rhumerus 58.602 46.1684 -16.1228
rradius 86.5262
rwrist 8.44458
rhand -4.57015 -43.4268
rfingers 7.12502
rthumb 21.2064 -72.2868
lclavicle 1.13307e-014 2.8625e-014
lhumerus 78.6368 -33.6285 7.35263
lradius 106.055
lwrist 6.13923
lhand -20.7315 -9.2476
lfingers 7.12502
lthumb 5.63358 20.6575
rfemur -8.97679 20.6938 25.9806
rtibia 4.00191
rfoot -10.3031 -15.8416
rtoes 3.2233
lfemur 180.278 219.565 171.096
ltibia -2.25693
lfoot 343.78 -309.369
ltoes 7.91068
447
root -0.52555 17.7602 7.29656 11.4065 -5.80557 -9.75319
lowerback 4.8347 2.65121 2.83414
upperback -1.57416 3.71742 -0.178812
thorax -4.14456 1.77022 -2.07531
lowerneck -12.416 -4.86808 -0.0574108
upperneck 9.30245 -7.61185 8.59455
head 5.1887 -3.15826 2.06138
rclavicle -3.24019e-014 7.95139e-015
rhumerus 61.1545 44.2104 -17.6679
rradius 80.7427
rwrist 8.88163
rhand -4.76285 -43.6263
rfingers 7.12502
rthumb 21.0213 -72.507
lclavicle -3.24019e-014 7.95139e-015
lhumerus 82.4541 -32.2118 8.79721
lradius 100.589
lwrist 6.55609
lhand -19.8952 -9.20011
lfingers 7.12502
lthumb 6.44102 20.682
rfemur -9.40396 20.7692 25.8573
rtibia 3.90304
rfoot -10.3058 -16.6738
rtoes 3.62273
lfemur 179.072 219.467 172.001
ltibia -2.11422
lfoot 344.944 -310.066
ltoes 6.78318
448
root -0.524146 17.7761 7.25046 11.7518 -4.96008 -9.71437
lowerback 4.87405 2.72726 2.93104
upperback -1.23787 3.82475 -0.0385883
thorax -3.81506 1.8325 -1.98335
lowerneck -13.1726 -5.16274 -0.0569353
upperneck 8.96351 -7.98895 8.52945
head 5.2233 -3.33826 1.99362
rclavicle -5.36719e-015 1.27222e-014
rhumerus 63.2805 42.0607 -19.7281
rradius 74.8477
rwrist 9.43505
rhand -4.92719 -43.5527
rfingers 7.12502
rthumb 20.8634 -72.4508
lclavicle -5.36719e-015 1.27222e-014
lhumerus 86.2175 -30.861 10.3473
lradius 94.5129
lwrist 6.6874
lhand -19.3658 -8.9611
lfingers 7.12502
lthumb 6.95201 20.9047
rfemur -9.90649 20.9095 25.6326
rtibia 3.76543
rfoot -10.3138 -17.5527
rtoes 4.10144
lfemur 177.789 219.468 172.893
ltibia -1.98244
lfoot 345.942 -310.66
ltoes 5.83237
449
root -0.521815 17.7927 7.20709 12.1793 -4.12188 -9.66086
lowerback 4.86548 2.77968 3.02062
upperback -0.953452 3.89849 0.099802
thorax -3.51522 1.87722 -1.88563
lowerneck -13.9403 -5.46285 -0.170983
upperneck 8.69897 -8.37916 8.62577
head 5.29488 -3.5143 1.9901
rclavicle -2.90226e-014 -9.54166e-015
rhumerus 64.9596 39.9734 -22.3454
rradius 68.9213
rwrist 10.2151
rhand -5.10481 -43.2019
rfingers 7.12502
rthumb 20.6927 -72.1187
lclavicle -2.90226e-014 -9.54166e-015
lhumerus 89.7719 -29.7979 12.0711
lradius 87.869
lwrist 6.40299
lhand -19.0241 -8.55518
lfingers 7.12502
lthumb 7.28193 21.2995
rfemur -10.4797 21.1226 25.343
rtibia 3.5943
rfoot -10.3381 -18.4953
rtoes 4.6834
lfemur 176.424 219.535 173.82
ltibia -1.86716
lfoot 346.809 -311.18
ltoes 5.03235
450
root -0.518677 17.8099 7.16597 12.6787 -3.28694 -9.62141
lowerback 4.8246 2.80067 3.13464
upperback -0.703592 3.93069 0.245618
thorax -3.23461 1.90021 -1.79021
lowerneck -14.6592 -5.74457 -0.278771
upperneck 8.39259 -8.74125 8.74351
head 5.34485 -3.67748 1.9947
rclavicle 5.18828e-014 -3.97569e-015
rhumerus 66.2669 37.9041 -25.4737
rradius 63.0349
rwrist 11.3503
rhand -5.27621 -42.5816
rfingers 7.12502
rthumb 20.528 -71.5163
lclavicle 5.18828e-014 -3.97569e-015
lhumerus 93.0453 -28.9662 13.9969
lradius 80.78
lwrist 5.64275
lhand -18.7951 -8.01797
lfingers 7.12502
lthumb 7.50295 21.829
rfemur -11.1182 21.4038 25.0256
rtibia 3.40304
rfoot -10.3871 -19.4981
rtoes 5.37676
lfemur 174.982 219.634 174.821
ltibia -1.7704
lfoot 347.585 -311.648
ltoes 4.32714
451
root -0.514892 17.8276 7.12662 13.2317 -2.46579 -9.61198
lowerback 4.76938 2.78801 3.29399
upperback -0.471407 3.91997 0.406332
thorax -2.96487 1.9009 -1.70169
lowerneck -15.2822 -5.97803 -0.308973
upperneck 7.96475 -9.02869 8.78693
head 5.32996 -3.81438 1.97396
rclavicle 1.41137e-014 1.35174e-014
rhumerus 67.273 35.8209 -29.0881
rradius 57.2337
rwrist 13.0184
rhand -5.42468 -41.757
rfingers 7.12502
rthumb 20.3853 -70.707
lclavicle 1.41137e-014 1.35174e-014
lhumerus 95.9343 -28.3271 16.1802
lradius 73.4478
lwrist 4.42177
lhand -18.425 -7.60892
lfingers 7.12502
lthumb 7.8602 22.225
rfemur -11.8092 21.7393 24.7033
rtibia 3.2015
rfoot -10.4599 -20.5337
rtoes 6.1819
lfemur 173.487 219.73 175.899
ltibia -1.69112
lfoot 348.3 -312.08
ltoes 3.664
452
root -0.510473 17.8454 7.08872 13.8178 -1.68056 -9.62447
lowerback 4.73971 2.74932 3.48714
upperback -0.251524 3.87724 0.589748
thorax -2.72344 1.88482 -1.60876
lowerneck -15.8209 -6.15147 -0.233635
upperneck 7.39497 -9.22334 8.69017
head 5.23918 -3.9211 1.90628
rclavicle 2.44505e-014 2.94201e-014
rhumerus 67.9914 33.701 -33.223
rradius 51.5893
rwrist 15.2957
rhand -5.48381 -40.7877
rfingers 7.12502
rthumb 20.3285 -69.7438
lclavicle 2.44505e-014 2.94201e-014
lhumerus 98.3174 -27.8724 18.7198
lradius 66.1447
lwrist 2.8345
lhand -17.9568 -7.49596
lfingers 7.12502
lthumb 8.31202 22.3205
rfemur -12.5395 22.1144 24.3695
rtibia 2.99838
rfoot -10.5493 -21.5672
rtoes 7.06876
lfemur 171.977 219.844 177.02
ltibia -1.62664
lfoot 348.933 -312.441
ltoes 3.07169
